<svg xmlns="http://www.w3.org/2000/svg" data-name="Layer 1" viewBox="0 0 48 48"><path fill="none" stroke="#5a595b" stroke-linejoin="round" stroke-width="2" d="M14.646,27.179a16.993,16.993,0,0,1,15.41-24.17c.34,0,.67.01,1.01.03a17,17,0,0,1,8.36,31.15"/><polyline fill="none" stroke="#5a595b" stroke-linejoin="round" stroke-width="2" points="31.042 2.995 34.056 8.009 34.056 11.009 31.056 12.009 30.056 15.009 32.056 18.009 32.056 20.009 29.056 21.009 30.056 24.009 32.056 25.009 30.056 27.009 27.056 26.009 26.056 21.009 24.056 19.009 21.056 19.009 18.056 16.009 18.056 8.009"/><polyline fill="none" stroke="#5a595b" stroke-linejoin="round" stroke-width="2" points="44.056 9.009 40.056 12.009 40.056 16.009 42.056 16.996 42.056 18.996 44.056 20.009 44.044 22.009 42.056 26.996 45.056 27.009"/><polyline fill="none" stroke="#5a595b" stroke-linejoin="round" stroke-width="2" points=".056 40.006 8.056 40.006 23.056 45.006 43.056 36.006 39.056 34.006 26.056 37.006"/><polyline fill="none" stroke="#5a595b" stroke-linejoin="round" stroke-width="2" points=".056 30.006 8.009 29.993 15.056 27.009 28.056 32.994 26.056 37.006 15.043 32.006"/></svg>