<?xml version="1.0" encoding="utf-8"?>
<!-- Generator: Adobe Illustrator 21.0.0, SVG Export Plug-In . SVG Version: 6.00 Build 0)  -->
<svg version="1.1" id="Layer_1" xmlns="http://www.w3.org/2000/svg" xmlns:xlink="http://www.w3.org/1999/xlink" x="0px" y="0px"
	 viewBox="0 0 160 160" enable-background="new 0 0 160 160" xml:space="preserve">
<g>
	<polygon fill="#F9BEB4" points="120,75 110,75 110,85 110,95 120,95 120,105 130,105 130,95 130,85 120,85 	"/>
	<polygon fill="#F9BEB4" points="140,25 140,15 130,15 120,15 120,25 110,25 110,35 120,35 120,45 120,55 130,55 140,55 140,45 
		150,45 150,35 150,25 	"/>
	<path fill="#F9BEB4" d="M100,25H90V15H80H70v10H60H50v10H40v10v10H30v10H20V55V45H10v10v10v10h10h10h10h10V65V55V45h10v10v10v10H50
		v10H40H30v10v10h10v10h10v10h10h10v10h10h10v-10h10h10v-10v-10h-10V95V85H90H80V75H70V65V55V45h10v10v10v10h10h10V65V55V45h10V35
		h-10V25z M70,105H60V95h10V105z"/>
</g>
<g>
	<rect x="90" y="125" fill="#F37566" width="10" height="10"/>
	<rect x="60" y="125" fill="#F37566" width="10" height="10"/>
	<rect x="110" y="115" fill="#F37566" width="10" height="10"/>
	<rect x="40" y="115" fill="#F37566" width="10" height="10"/>
	<polygon fill="#F37566" points="30,115 20,115 10,115 10,125 10,135 20,135 30,135 30,145 40,145 50,145 50,135 40,135 40,125 
		30,125 	"/>
	<polygon fill="#F37566" points="140,115 130,115 130,125 120,125 120,135 110,135 110,145 120,145 130,145 140,145 140,135 
		150,135 150,125 150,115 150,105 140,105 	"/>
	<rect x="30" y="105" fill="#F37566" width="10" height="10"/>
	<rect x="110" y="95" fill="#F37566" width="10" height="10"/>
	<rect x="120" y="75" fill="#F37566" width="10" height="10"/>
	<polygon fill="#F37566" points="80,75 80,85 90,85 100,85 100,75 90,75 	"/>
	<polygon fill="#F37566" points="30,75 20,75 20,85 30,85 40,85 50,85 50,75 40,75 	"/>
	<polygon fill="#F37566" points="130,65 130,75 140,75 140,65 140,55 130,55 	"/>
	<polygon fill="#F37566" points="120,55 110,55 110,65 110,75 120,75 120,65 	"/>
	<rect x="20" y="55" fill="#F37566" width="10" height="10"/>
	<rect x="140" y="45" fill="#F37566" width="10" height="10"/>
	<rect x="100" y="45" fill="#F37566" width="10" height="10"/>
	<polygon fill="#F37566" points="30,45 30,55 40,55 40,45 40,35 30,35 	"/>
	<rect x="100" y="25" fill="#F37566" width="10" height="10"/>
	<rect x="40" y="25" fill="#F37566" width="10" height="10"/>
	<rect x="110" y="15" fill="#F37566" width="10" height="10"/>
	<rect x="90" y="15" fill="#F37566" width="10" height="10"/>
	<rect x="60" y="15" fill="#F37566" width="10" height="10"/>
</g>
<g>
	<polygon fill="#090B0A" points="120,145 110,145 110,155 120,155 130,155 140,155 140,145 130,145 	"/>
	<polygon fill="#090B0A" points="30,145 30,155 40,155 50,155 50,145 40,145 	"/>
	<rect x="140" y="135" fill="#090B0A" width="10" height="10"/>
	<polygon fill="#090B0A" points="20,135 10,135 10,145 20,145 30,145 30,135 	"/>
	<polygon fill="#090B0A" points="120,135 120,125 110,125 100,125 100,135 90,135 80,135 70,135 60,135 60,125 50,125 40,125 
		40,135 50,135 50,145 60,145 70,145 80,145 90,145 100,145 110,145 110,135 	"/>
	<polygon fill="#090B0A" points="150,125 150,135 160,135 160,125 160,115 160,105 150,105 150,115 	"/>
	<rect x="30" y="115" fill="#090B0A" width="10" height="10"/>
	<polygon fill="#090B0A" points="10,115 0,115 0,125 0,135 10,135 10,125 	"/>
	<polygon fill="#090B0A" points="30,115 30,105 30,95 30,85 20,85 20,95 20,105 10,105 10,115 20,115 	"/>
	<rect x="60" y="95" fill="#090B0A" width="10" height="10"/>
	<polygon fill="#090B0A" points="110,85 110,75 110,65 110,55 100,55 100,65 100,75 100,85 100,95 100,105 110,105 110,95 	"/>
	<polygon fill="#090B0A" points="130,85 130,95 130,105 120,105 110,105 110,115 120,115 120,125 130,125 130,115 140,115 140,105 
		150,105 150,95 140,95 140,85 140,75 130,75 	"/>
	<rect x="10" y="75" fill="#090B0A" width="10" height="10"/>
	<polygon fill="#090B0A" points="120,75 130,75 130,65 130,55 120,55 120,65 	"/>
	<polygon fill="#090B0A" points="60,65 60,55 60,45 50,45 50,55 50,65 50,75 60,75 	"/>
	<polygon fill="#090B0A" points="140,65 140,75 150,75 150,65 150,55 140,55 	"/>
	<polygon fill="#090B0A" points="10,55 10,45 0,45 0,55 0,65 0,75 10,75 10,65 	"/>
	<polygon fill="#090B0A" points="120,45 120,35 110,35 110,45 110,55 120,55 	"/>
	<polygon fill="#090B0A" points="70,55 70,65 70,75 80,75 80,65 80,55 80,45 70,45 	"/>
	<polygon fill="#090B0A" points="20,55 30,55 30,45 30,35 20,35 10,35 10,45 20,45 	"/>
	<polygon fill="#090B0A" points="150,25 150,35 150,45 150,55 160,55 160,45 160,35 160,25 	"/>
	<rect x="30" y="25" fill="#090B0A" width="10" height="10"/>
	<rect x="140" y="15" fill="#090B0A" width="10" height="10"/>
	<polygon fill="#090B0A" points="60,25 60,15 50,15 40,15 40,25 50,25 	"/>
	<polygon fill="#090B0A" points="80,15 90,15 100,15 100,25 110,25 110,15 120,15 130,15 140,15 140,5 130,5 120,5 110,5 100,5 
		90,5 80,5 70,5 60,5 60,15 70,15 	"/>
</g>
</svg>
